# xmcd
#
# Track frame offsets:
#	328
#	15689
#	35695
#	53898
#	73878
#	91836
#	109064
#	124875
#	139762
#	160052
#	176518
#	193949
#	217184
#	233624
#	247647
#
# Disc length: 3623 seconds
#
# Revision: 5
# Processed by: cddbd v1.5.2PL0 Copyright (c) Steve Scherf et al.
# Submitted via: EZCDAudioConverter 3.1.5.1
#
DISCID=d30e230f
DTITLE=Πυξ Λάξ - Για Τους Πρίγκιπες Της Δυτικής Όχθης
DYEAR=1900
DGENRE=Έντεχνο
TTITLE0=	Σαν Ψέμα
TTITLE1=	Ανόητες Αγάπες
TTITLE2=Λένε Για Μένα
TTITLE3=Σ' Όλους Δίνεσαι
TTITLE4=Δεν Θα Δακρύσω Πια Για Σένα
TTITLE5=Μιά Ζωή Στο Ρίσκο (Ο Παράδεισος Είναι Τόπος Για Δεύτερους Ρόλους)
TTITLE6=	Μπορεί
TTITLE7=Τι Είναι Αυτό Που Μας Χωρίζει;
TTITLE8=Ατελείωτα Ταξίδια
TTITLE9=Ας Γίνει Ό,τι Θες
TTITLE10=Χωρίς Ντροπή
TTITLE11=Άρχισες Να Ξεθωριάζεις Σαν Μιά Παλιά Φωτογραφία
TTITLE12=	Ψιχαλίζει Στο Βελιγράδι
TTITLE13=	Ξημέρωμα
TTITLE14=	Δεν Θα Δακρύσω Πια Για Σένα
EXTD=
EXTT0=
EXTT1=
EXTT2=
EXTT3=
EXTT4=
EXTT5=
EXTT6=
EXTT7=
EXTT8=
EXTT9=
EXTT10=
EXTT11=
EXTT12=
EXTT13=
EXTT14=
PLAYORDER=
